# xmcd CD database file
#
# Track frame offsets:
#	150
#	13550
#	26545
#	37665
#	52477
#	66240
#	78700
#	90397
#	104600
#	115537
#	130170
#	141402
#	151242
#	162005
#	173822
#	188142
#	201632
#	215457
#	227927
#	238870
#	252287
#	264590
#	275917
#	289015
#	299640
#
# Disc length: 4164 seconds
#
# Revision: 0
# Processed by: cddbd v1.5.1PL2 Copyright (c) Steve Scherf et al.
# Submitted via: CDex 1.51
#
DISCID=7d104219
DTITLE=Nellie Lutcher - Hurry On Down
DYEAR=2001
DGENRE=Jazz
TTITLE0=Fine Brown Frame
TTITLE1=Come And Get It Honey
TTITLE2=Hurry On Down
TTITLE3=My Mother's Eyes
TTITLE4=He's A Real Gone Guy
TTITLE5=The One I Love Belongs To Someone Else
TTITLE6=Kinda Blue And Low
TTITLE7=Let Me Love You Tonight
TTITLE8=For You My Love
TTITLE9=Fine And Mellow
TTITLE10=The Song Is Ended
TTITLE11=A Chicken Ain't Nothing But A Bird
TTITLE12=So Nice To See You Baby
TTITLE13=Lake Charles Boogie
TTITLE14=I Wish I Was In Walla Walla
TTITLE15=He Sends Me
TTITLE16=My New Pa's Got To Have Everything
TTITLE17=There's Another Mule In Your Stall
TTITLE18=Pa's Not Home, Ma's Upstairs
TTITLE19=Lutcher's Leap
TTITLE20=Reaching For The Moon
TTITLE21=That Will Just About Knock Me Out
TTITLE22=You Had Better Watch Yourself, Bub
TTITLE23=Only You
TTITLE24=Ditto From Me To You
EXTD=YEAR: 2001
EXTT0=
EXTT1=
EXTT2=
EXTT3=
EXTT4=
EXTT5=
EXTT6=
EXTT7=
EXTT8=
EXTT9=
EXTT10=
EXTT11=
EXTT12=
EXTT13=
EXTT14=
EXTT15=
EXTT16=
EXTT17=
EXTT18=
EXTT19=
EXTT20=
EXTT21=
EXTT22=
EXTT23=
EXTT24=
PLAYORDER=
